<svg width="24" height="24" viewBox="0 0 24 24" fill="none" xmlns="http://www.w3.org/2000/svg">
<g clip-path="url(#clip0_26024_2293)">
<path d="M12.7144 0C16.5856 0 19.7248 3.0792 19.7248 6.8784C19.7235 7.877 19.5029 8.86312 19.0784 9.76701C18.6539 10.6709 18.036 11.4705 17.2684 12.1092C17.5964 12.2692 17.8956 12.43 18.166 12.5916C18.7476 12.9396 19.3516 13.3712 19.978 13.8864C20.0624 13.9551 20.1322 14.0399 20.1833 14.1359C20.2344 14.2319 20.2658 14.3372 20.2757 14.4456C20.2855 14.5539 20.2736 14.6631 20.2406 14.7668C20.2076 14.8704 20.1542 14.9665 20.0836 15.0492C19.9385 15.2177 19.7333 15.3228 19.5118 15.3421C19.2903 15.3614 19.07 15.2933 18.898 15.1524C18.3916 14.7287 17.8541 14.3436 17.29 14.0004C16.7397 13.6818 16.1688 13.4 15.5812 13.1568C14.6775 13.5546 13.7006 13.759 12.7132 13.7568C11.6253 13.7591 10.5515 13.5107 9.57521 13.0308L9.52481 13.0548C7.15241 13.962 5.42081 15.3036 4.30481 17.0844C3.18281 18.8712 2.72441 20.868 2.92961 23.1012C2.93879 23.2102 2.92629 23.3199 2.89283 23.4241C2.85936 23.5282 2.80559 23.6247 2.73463 23.7079C2.66367 23.7911 2.57692 23.8595 2.47939 23.909C2.38186 23.9585 2.27549 23.9882 2.16641 23.9964C1.94628 24.0178 1.72661 23.9512 1.55547 23.8111C1.38433 23.671 1.27565 23.4688 1.25321 23.2488C1.01681 20.6664 1.55681 18.3132 2.87081 16.2192C4.02761 14.376 5.72681 12.9432 7.94681 11.922C7.24054 11.2852 6.67586 10.5073 6.2893 9.63846C5.90275 8.76964 5.70294 7.82933 5.70281 6.8784C5.70281 3.0792 8.84321 0 12.7144 0ZM21.382 17.088C21.5385 16.9343 21.7488 16.8479 21.9681 16.8473C22.1874 16.8466 22.3982 16.9317 22.5556 17.0844C22.8796 17.4036 22.8796 17.922 22.558 18.2424L21.1276 19.6572L22.558 21.0732C22.6348 21.1488 22.6957 21.2389 22.7372 21.3383C22.7787 21.4377 22.8 21.5444 22.7998 21.6521C22.7995 21.7598 22.7778 21.8664 22.7359 21.9656C22.694 22.0649 22.6327 22.1547 22.5556 22.23C22.3985 22.383 22.1879 22.4686 21.9686 22.4683C21.7493 22.4681 21.5388 22.3822 21.382 22.2288L19.9576 20.8164L18.5332 22.2288C18.3932 22.3658 18.2097 22.4495 18.0144 22.4655C17.8192 22.4815 17.6245 22.4288 17.464 22.3164L17.3608 22.23C17.2837 22.1547 17.2224 22.0649 17.1805 21.9656C17.1386 21.8664 17.1169 21.7598 17.1167 21.6521C17.1164 21.5444 17.1377 21.4377 17.1792 21.3383C17.2207 21.2389 17.2816 21.1488 17.3584 21.0732L18.7864 19.6572L17.3584 18.2412C17.2816 18.1656 17.2207 18.0755 17.1792 17.9761C17.1377 17.8767 17.1164 17.77 17.1167 17.6623C17.1169 17.5546 17.1386 17.448 17.1805 17.3488C17.2224 17.2495 17.2837 17.1597 17.3608 17.0844C17.518 16.9319 17.7285 16.8468 17.9475 16.8472C18.1665 16.8477 18.3767 16.9336 18.5332 17.0868L19.9576 18.498L21.382 17.088ZM12.7144 1.65C9.77081 1.65 7.38641 3.99 7.38641 6.8772C7.38641 9.7644 9.77081 12.1056 12.7144 12.1056C15.6568 12.1056 18.0424 9.7656 18.0424 6.8772C18.0424 3.9888 15.6568 1.65 12.7144 1.65Z" fill="#FF4E4E"/>
</g>
<defs>
<clipPath id="clip0_26024_2293">
<rect width="24" height="24" fill="white"/>
</clipPath>
</defs>
</svg>
