<svg width="50" height="50" viewBox="0 0 50 50" fill="none" xmlns="http://www.w3.org/2000/svg">
<path fill-rule="evenodd" clip-rule="evenodd" d="M33.3307 18.7503C33.3307 20.9605 32.4528 23.0801 30.89 24.6429C29.3272 26.2057 27.2075 27.0837 24.9974 27.0837C22.7873 27.0837 20.6676 26.2057 19.1048 24.6429C17.542 23.0801 16.6641 20.9605 16.6641 18.7503C16.6641 16.5402 17.542 14.4206 19.1048 12.8578C20.6676 11.295 22.7873 10.417 24.9974 10.417C27.2075 10.417 29.3272 11.295 30.89 12.8578C32.4528 14.4206 33.3307 16.5402 33.3307 18.7503ZM29.1641 18.7503C29.1641 19.8554 28.7251 20.9152 27.9437 21.6966C27.1623 22.478 26.1025 22.917 24.9974 22.917C23.8923 22.917 22.8325 22.478 22.0511 21.6966C21.2697 20.9152 20.8307 19.8554 20.8307 18.7503C20.8307 17.6453 21.2697 16.5854 22.0511 15.804C22.8325 15.0226 23.8923 14.5837 24.9974 14.5837C26.1025 14.5837 27.1623 15.0226 27.9437 15.804C28.7251 16.5854 29.1641 17.6453 29.1641 18.7503Z" fill="white"/>
<path fill-rule="evenodd" clip-rule="evenodd" d="M24.9987 2.0835C12.3424 2.0835 2.08203 12.3439 2.08203 25.0002C2.08203 37.6564 12.3424 47.9168 24.9987 47.9168C37.6549 47.9168 47.9154 37.6564 47.9154 25.0002C47.9154 12.3439 37.6549 2.0835 24.9987 2.0835ZM6.2487 25.0002C6.2487 29.3543 7.73412 33.3627 10.2237 36.546C11.9725 34.2504 14.2282 32.39 16.8146 31.11C19.401 29.83 22.2483 29.165 25.1341 29.1668C27.9828 29.1635 30.7947 29.8108 33.3552 31.0593C35.9158 32.3078 38.1574 34.1245 39.9091 36.371C41.7142 34.0035 42.9296 31.2402 43.4547 28.3097C43.9799 25.3793 43.7996 22.3659 42.9289 19.5189C42.0582 16.6719 40.5221 14.0732 38.4476 11.9377C36.3732 9.8023 33.8201 8.19154 30.9995 7.23872C28.1789 6.28591 25.172 6.01844 22.2276 6.45844C19.2831 6.89844 16.4858 8.03327 14.067 9.76902C11.6482 11.5048 9.67747 13.7916 8.31793 16.4402C6.95838 19.0887 6.24907 22.023 6.2487 25.0002ZM24.9987 43.7502C20.6943 43.7571 16.5198 42.2763 13.182 39.5585C14.5254 37.6348 16.3137 36.0641 18.3947 34.9803C20.4757 33.8964 22.7878 33.3315 25.1341 33.3335C27.4511 33.3315 29.7352 33.8824 31.7966 34.9404C33.8579 35.9984 35.6371 37.5331 36.9862 39.4168C33.6226 42.2231 29.3792 43.757 24.9987 43.7502Z" fill="white"/>
</svg>
