<svg width="38" height="38" viewBox="0 0 38 38" fill="none" xmlns="http://www.w3.org/2000/svg">
<path d="M19.0007 1.5835L34.0423 10.2918V27.7085L19.0007 36.4168L3.95898 27.7085V10.2918L19.0007 1.5835ZM19.0007 5.24258L7.12565 12.1174V25.8829L19.0007 32.7577L30.8757 25.8829V12.1174L19.0007 5.24258ZM19.0007 25.3335C17.3209 25.3335 15.71 24.6662 14.5223 23.4785C13.3346 22.2908 12.6673 20.6799 12.6673 19.0002C12.6673 17.3205 13.3346 15.7095 14.5223 14.5218C15.71 13.3341 17.3209 12.6668 19.0007 12.6668C20.6804 12.6668 22.2913 13.3341 23.479 14.5218C24.6667 15.7095 25.334 17.3205 25.334 19.0002C25.334 20.6799 24.6667 22.2908 23.479 23.4785C22.2913 24.6662 20.6804 25.3335 19.0007 25.3335ZM19.0007 22.1668C19.8405 22.1668 20.646 21.8332 21.2398 21.2393C21.8337 20.6455 22.1673 19.84 22.1673 19.0002C22.1673 18.1603 21.8337 17.3549 21.2398 16.761C20.646 16.1671 19.8405 15.8335 19.0007 15.8335C18.1608 15.8335 17.3553 16.1671 16.7615 16.761C16.1676 17.3549 15.834 18.1603 15.834 19.0002C15.834 19.84 16.1676 20.6455 16.7615 21.2393C17.3553 21.8332 18.1608 22.1668 19.0007 22.1668Z" fill="white"/>
</svg>
